<svg version="1.1" id="Capa_1" xmlns="http://www.w3.org/2000/svg" xmlns:xlink="http://www.w3.org/1999/xlink" x="0px" y="0px" viewBox="0 0 512 512" style="enable-background:new 0 0 512 512;" xml:space="preserve"><g transform="translate(-1)"><path style="fill:#5E5F62;" d="M508.661,53.717v328.114H5.339V53.717C4.949,43.7,12.684,35.23,22.695,34.712h468.61 C501.317,35.23,509.052,43.7,508.661,53.717z"/><polygon style="fill:#95A5A5;" points="311.376,425.221 257,425.221 202.624,425.221 178.898,503.322 257,503.322 335.102,503.322 "/><g><path style="fill:#BDC3C7;" d="M508.661,364.475v50.419c0.391,10.017-7.345,18.487-17.356,19.005H22.695 c-10.011-0.518-17.747-8.988-17.356-19.005v-50.419H508.661z"/><path style="fill:#BDC3C7;" d="M352.458,512H161.543c-4.793,0-8.678-3.885-8.678-8.678c0-4.793,3.885-8.678,8.678-8.678h190.915 c4.793,0,8.678,3.885,8.678,8.678C361.136,508.115,357.251,512,352.458,512z"/></g><path style="fill:#67B9CC;" d="M394.788,172.952c4.316,0.042,7.996-3.119,8.607-7.392c1.508-11.976,1.508-24.094,0-36.07 c-0.611-4.273-4.291-7.433-8.607-7.391h-23.673c-2.91-13.251-8.14-25.884-15.447-37.315l16.751-16.752 c3.081-3.025,3.448-7.863,0.858-11.318c-7.393-9.518-15.948-18.074-25.466-25.467c-3.455-2.59-8.293-2.223-11.318,0.858 l-16.752,16.752c-11.431-7.307-24.064-12.537-37.315-15.447V9.737c0.042-4.316-3.118-7.996-7.391-8.607 c-11.976-1.507-24.094-1.507-36.07,0c-4.273,0.611-7.433,4.291-7.391,8.607v23.673c-13.251,2.91-25.884,8.14-37.315,15.447 l-16.753-16.752c-3.025-3.081-7.863-3.448-11.318-0.858c-9.518,7.393-18.073,15.949-25.466,25.467 c-2.59,3.455-2.223,8.293,0.858,11.318l16.751,16.752c-7.307,11.431-12.536,24.064-15.447,37.315h-23.673 c-4.316-0.042-7.996,3.119-8.607,7.391c-1.508,11.976-1.508,24.094,0,36.07c0.611,4.273,4.291,7.433,8.607,7.392h23.673 c2.91,13.251,8.14,25.884,15.447,37.315l-16.751,16.752c-3.081,3.025-3.448,7.863-0.858,11.318 c7.393,9.518,15.948,18.074,25.466,25.467c3.455,2.59,8.293,2.223,11.318-0.858l16.752-16.751 c11.431,7.307,24.064,12.537,37.315,15.447v23.673c-0.042,4.316,3.119,7.996,7.391,8.607c11.976,1.507,24.093,1.507,36.069,0 c4.273-0.611,7.433-4.291,7.391-8.607v-23.673c13.251-2.91,25.884-8.139,37.315-15.447l16.752,16.751 c3.025,3.081,7.863,3.448,11.318,0.858c9.518-7.393,18.074-15.949,25.466-25.467c2.59-3.455,2.223-8.293-0.858-11.318 l-16.75-16.752c7.307-11.431,12.537-24.064,15.447-37.315H394.788z M257,207.664c-24.324,0-46.253-14.652-55.561-37.124 c-9.308-22.472-4.163-48.339,13.036-65.538s43.066-22.345,65.538-13.037s37.125,31.237,37.125,55.561 c0.008,15.952-6.325,31.253-17.605,42.533C288.253,201.339,272.952,207.672,257,207.664z"/><g><path style="fill:#2FA8CC;" d="M79.102,284.636c-2.302,0.001-4.509-0.914-6.137-2.541c-1.628-1.628-2.542-3.835-2.541-6.137 v-15.619c0-4.793,3.885-8.678,8.678-8.678c4.793,0,8.678,3.885,8.678,8.678v15.619c0.001,2.302-0.913,4.509-2.541,6.137 C83.611,283.722,81.404,284.637,79.102,284.636z"/><path style="fill:#2FA8CC;" d="M79.102,347.119c-2.302,0.001-4.509-0.914-6.137-2.541c-1.628-1.628-2.542-3.835-2.541-6.137 v-15.619c0-4.793,3.885-8.678,8.678-8.678c4.793,0,8.678,3.885,8.678,8.678v15.619c0.001,2.302-0.913,4.509-2.541,6.137 C83.611,346.206,81.404,347.12,79.102,347.119z"/><path style="fill:#2FA8CC;" d="M62.534,291.5c-2.302,0.003-4.51-0.912-6.135-2.543l-11.043-11.046 c-3.389-3.389-3.389-8.883,0-12.271c3.389-3.389,8.883-3.389,12.271,0l11.042,11.047c2.481,2.482,3.223,6.214,1.88,9.456 C69.207,289.385,66.044,291.499,62.534,291.5L62.534,291.5z"/><path style="fill:#2FA8CC;" d="M106.712,335.683c-2.302,0.003-4.51-0.912-6.135-2.543l-11.042-11.047 c-3.389-3.389-3.389-8.883,0-12.271c3.389-3.389,8.883-3.389,12.271,0l11.042,11.047c2.481,2.482,3.223,6.214,1.88,9.456 S110.222,335.681,106.712,335.683L106.712,335.683z"/><path style="fill:#2FA8CC;" d="M55.67,308.068H40.051c-4.793,0-8.678-3.885-8.678-8.678s3.885-8.678,8.678-8.678H55.67 c4.793,0,8.678,3.885,8.678,8.678S60.462,308.068,55.67,308.068z"/><path style="fill:#2FA8CC;" d="M118.153,308.068h-15.619c-4.793,0-8.678-3.885-8.678-8.678s3.885-8.678,8.678-8.678h15.619 c4.793,0,8.678,3.885,8.678,8.678S122.945,308.068,118.153,308.068z"/><path style="fill:#2FA8CC;" d="M51.492,335.683c-3.509-0.001-6.673-2.115-8.016-5.357c-1.343-3.242-0.601-6.974,1.88-9.456 l11.042-11.047c3.389-3.389,8.883-3.389,12.271,0c3.389,3.389,3.389,8.883,0,12.271L57.627,333.14 C56.002,334.77,53.794,335.685,51.492,335.683z"/><path style="fill:#2FA8CC;" d="M95.67,291.5c-3.509-0.001-6.673-2.115-8.016-5.357c-1.343-3.242-0.601-6.974,1.88-9.456 l11.042-11.047c2.192-2.192,5.387-3.048,8.381-2.246c2.994,0.802,5.333,3.141,6.136,6.136c0.802,2.994-0.054,6.189-2.246,8.381 l-11.042,11.047C100.18,290.588,97.972,291.503,95.67,291.5z"/><path style="fill:#2FA8CC;" d="M434.898,275.958c-2.302,0.001-4.509-0.913-6.137-2.541c-1.628-1.628-2.542-3.835-2.541-6.137 v-15.619c0-4.793,3.885-8.678,8.678-8.678c4.793,0,8.678,3.885,8.678,8.678v15.619c0.001,2.302-0.913,4.509-2.541,6.137 S437.2,275.959,434.898,275.958z"/><path style="fill:#2FA8CC;" d="M434.898,338.441c-2.302,0.001-4.509-0.914-6.137-2.541c-1.628-1.628-2.542-3.835-2.541-6.137 v-15.619c0-4.793,3.885-8.678,8.678-8.678c4.793,0,8.678,3.885,8.678,8.678v15.619c0.001,2.302-0.913,4.509-2.541,6.137 C439.408,337.528,437.2,338.442,434.898,338.441z"/><path style="fill:#2FA8CC;" d="M418.331,282.822c-2.302,0.003-4.51-0.912-6.135-2.543l-11.043-11.046 c-2.192-2.192-3.048-5.387-2.246-8.381c0.802-2.994,3.141-5.333,6.136-6.136c2.994-0.802,6.189,0.054,8.381,2.246l11.042,11.047 c2.481,2.482,3.223,6.214,1.88,9.456C425.004,280.707,421.84,282.821,418.331,282.822L418.331,282.822z"/><path style="fill:#2FA8CC;" d="M462.509,327.005c-2.302,0.003-4.51-0.912-6.135-2.543l-11.042-11.047 c-3.389-3.389-3.389-8.883,0-12.271c3.389-3.389,8.883-3.389,12.271,0l11.042,11.047c2.481,2.482,3.223,6.214,1.88,9.456 S466.019,327.003,462.509,327.005L462.509,327.005z"/><path style="fill:#2FA8CC;" d="M411.466,299.39h-15.619c-4.793,0-8.678-3.885-8.678-8.678c0-4.793,3.885-8.678,8.678-8.678h15.619 c4.793,0,8.678,3.885,8.678,8.678C420.144,295.505,416.259,299.39,411.466,299.39z"/><path style="fill:#2FA8CC;" d="M473.949,299.39h-15.619c-4.793,0-8.678-3.885-8.678-8.678c0-4.793,3.885-8.678,8.678-8.678h15.619 c4.793,0,8.678,3.885,8.678,8.678C482.627,295.505,478.742,299.39,473.949,299.39z"/><path style="fill:#2FA8CC;" d="M407.288,327.005c-3.509-0.001-6.673-2.115-8.016-5.357c-1.343-3.242-0.601-6.974,1.88-9.456 l11.042-11.047c2.192-2.192,5.387-3.048,8.381-2.246c2.994,0.802,5.333,3.141,6.136,6.136c0.802,2.994-0.054,6.189-2.246,8.381 l-11.042,11.047C411.799,326.093,409.59,327.007,407.288,327.005z"/><path style="fill:#2FA8CC;" d="M451.466,282.822c-3.509-0.001-6.673-2.115-8.016-5.357c-1.343-3.242-0.601-6.974,1.88-9.456 l11.042-11.047c2.192-2.192,5.387-3.048,8.381-2.246c2.994,0.802,5.333,3.141,6.136,6.136c0.802,2.994-0.054,6.189-2.246,8.381 l-11.042,11.047C455.977,281.91,453.768,282.825,451.466,282.822z"/></g><g><circle style="fill:#67B9CC;" cx="79.102" cy="299.39" r="23.431"/><circle style="fill:#67B9CC;" cx="434.898" cy="290.712" r="23.431"/></g></g></svg>
